<mxfile host="app.diagrams.net" agent="Mozilla/5.0 (Windows NT 10.0; Win64; x64) AppleWebKit/537.36 (KHTML, like Gecko) Chrome/140.0.0.0 Safari/537.36" version="28.2.5">
  <diagram name="Página-1" id="c1q-ai3xIR3ACTlgDL2e">
    <mxGraphModel dx="1426" dy="1998" grid="1" gridSize="10" guides="1" tooltips="1" connect="1" arrows="1" fold="1" page="1" pageScale="1" pageWidth="827" pageHeight="1169" math="0" shadow="0">
      <root>
        <mxCell id="0" />
        <mxCell id="1" parent="0" />
        <mxCell id="I3DMvhVjpy8jdGZ3ul08-5" value="" style="edgeStyle=none;curved=1;rounded=0;orthogonalLoop=1;jettySize=auto;html=1;fontSize=12;startSize=8;endSize=8;" edge="1" parent="1" source="I3DMvhVjpy8jdGZ3ul08-1" target="I3DMvhVjpy8jdGZ3ul08-4">
          <mxGeometry relative="1" as="geometry" />
        </mxCell>
        <mxCell id="I3DMvhVjpy8jdGZ3ul08-1" value="Início" style="ellipse;whiteSpace=wrap;html=1;" vertex="1" parent="1">
          <mxGeometry x="340" y="40" width="120" height="80" as="geometry" />
        </mxCell>
        <mxCell id="I3DMvhVjpy8jdGZ3ul08-2" value="Fim" style="ellipse;whiteSpace=wrap;html=1;" vertex="1" parent="1">
          <mxGeometry x="340" y="790" width="120" height="80" as="geometry" />
        </mxCell>
        <mxCell id="I3DMvhVjpy8jdGZ3ul08-3" value="Ler quantidades" style="shape=parallelogram;perimeter=parallelogramPerimeter;whiteSpace=wrap;html=1;fixedSize=1;" vertex="1" parent="1">
          <mxGeometry x="320" y="320" width="160" height="60" as="geometry" />
        </mxCell>
        <mxCell id="I3DMvhVjpy8jdGZ3ul08-8" value="" style="edgeStyle=none;curved=1;rounded=0;orthogonalLoop=1;jettySize=auto;html=1;fontSize=12;startSize=8;endSize=8;" edge="1" parent="1" source="I3DMvhVjpy8jdGZ3ul08-4" target="I3DMvhVjpy8jdGZ3ul08-3">
          <mxGeometry relative="1" as="geometry" />
        </mxCell>
        <mxCell id="I3DMvhVjpy8jdGZ3ul08-4" value="Sandes = 1&lt;div&gt;Bolos = 0,8&lt;/div&gt;&lt;div&gt;Refrigerantes = 1,5&lt;/div&gt;&lt;div&gt;Café = 0,6&lt;/div&gt;" style="rounded=0;whiteSpace=wrap;html=1;" vertex="1" parent="1">
          <mxGeometry x="340" y="190" width="120" height="60" as="geometry" />
        </mxCell>
        <mxCell id="I3DMvhVjpy8jdGZ3ul08-7" value="Escrever lucro" style="shape=parallelogram;perimeter=parallelogramPerimeter;whiteSpace=wrap;html=1;fixedSize=1;" vertex="1" parent="1">
          <mxGeometry x="340" y="670" width="120" height="60" as="geometry" />
        </mxCell>
        <mxCell id="I3DMvhVjpy8jdGZ3ul08-9" value="Q Sandes * 1&lt;div&gt;Q Bolos * 0,8&lt;/div&gt;&lt;div&gt;Q Refrigerantes * 1,5&lt;/div&gt;&lt;div&gt;Q Café * 0,6&lt;/div&gt;" style="rounded=0;whiteSpace=wrap;html=1;" vertex="1" parent="1">
          <mxGeometry x="340" y="480" width="120" height="60" as="geometry" />
        </mxCell>
        <mxCell id="I3DMvhVjpy8jdGZ3ul08-10" value="" style="endArrow=classic;startArrow=classic;html=1;rounded=0;fontSize=12;startSize=8;endSize=8;curved=1;" edge="1" parent="1">
          <mxGeometry width="50" height="50" relative="1" as="geometry">
            <mxPoint x="550" y="-180" as="sourcePoint" />
            <mxPoint x="600" y="-230" as="targetPoint" />
          </mxGeometry>
        </mxCell>
      </root>
    </mxGraphModel>
  </diagram>
</mxfile>
